<svg width="250" height="237" viewBox="0 0 250 237" fill="none" xmlns="http://www.w3.org/2000/svg">
<g clip-path="url(#clip0_73_190)">
<mask id="path-1-inside-1_73_190" fill="white">
<path d="M250 110.07C250 110.914 249.456 111.804 249.276 112.614C249.056 113.585 249.103 115.441 248.732 116.199C248.628 116.407 246.752 118.893 246.613 119.003C245.774 119.662 243.8 120.003 242.954 120.738C242.497 121.137 238.641 125.577 238.474 125.936L236.853 133.025L239.203 140.177L235.585 152.569C235.434 154.957 235.724 157.483 235.573 159.854C235.498 160.993 235.035 162.393 235.081 163.497C235.122 164.526 235.834 165.729 235.863 166.787L232.03 172.182C232.03 173.032 232.071 174.714 231.665 175.46C231.318 176.091 229.17 177.01 229.054 177.611L229.251 191.061C230.467 192.685 231.428 194.64 232.644 196.241C234.039 198.08 236.025 199.612 237.472 201.411C237.987 202.052 240.546 205.568 240.726 206.094C240.957 206.771 240.627 211.258 240.459 212.16C240.303 212.975 238.954 216.624 238.555 217.393C237.866 218.717 235.863 220.197 235.064 221.521C234.236 222.891 233.587 225.216 232.852 226.766C231.347 229.928 228.962 234.277 226.05 236.312C225.453 236.728 222.431 237.214 221.823 236.867C221.644 236.763 220.075 235.005 219.849 234.716C218.79 233.346 217.754 232.085 216.677 230.749C215.426 229.194 214.303 227.523 213.012 226.002C209.243 224.759 205.295 224.077 201.659 222.469C201.022 223.221 199.992 223.874 199.361 224.568C197.369 226.742 195.812 230.113 193.884 232.421C192.917 232.831 186.734 236.659 186.341 236.381L183.967 227.245L183.133 216.34C181.842 215.375 180.349 214.704 179.04 213.761C178.722 213.53 176.563 211.819 176.476 211.68C176.262 211.327 176.568 209.772 176.447 209.055C176.389 208.708 175.833 207.303 175.648 206.996C175.509 206.765 172.91 204.273 172.718 204.215C172.197 204.059 168.307 204.678 167.549 204.857C167.305 204.915 167.068 204.973 166.865 205.129L163.369 211.628L160.185 213.062C159.409 213.137 157.84 212.038 156.954 211.865C156.398 211.755 155.889 211.853 155.351 211.72C154.343 211.466 152.491 209.841 151.547 209.645C150.707 209.471 149.359 210.072 148.363 209.812C148.195 209.772 146.47 208.835 146.348 208.731C145.885 208.315 145.439 206.551 144.918 206.424C144.443 206.302 140.507 208.396 139.418 207.968C138.978 207.823 138.22 205.371 137.716 204.903C137.583 204.782 134.764 203.579 134.596 203.567L134.312 203.706C132.842 205.753 131.632 207.973 129.357 209.228C129.108 209.263 127.44 208.326 126.96 208.193C121.952 206.823 117.801 208.829 113.164 208.771C112.411 208.76 111.612 208.257 110.802 208.303C110.246 208.332 108.804 209.101 108.486 208.881C107.27 206.979 109.291 205.244 109.1 203.197C109.065 203.047 107.89 201.428 107.704 201.249C107.259 200.804 106.633 200.653 106.263 200.26C106.101 200.087 104.636 197.849 104.59 197.693C104.3 196.716 105.192 194.998 105.285 193.946L110.315 190.228C110.987 189.037 110.796 187.476 111.288 186.285C111.942 184.7 115.381 182.185 115.491 181.115C115.572 180.306 115.144 179.103 115.016 178.276C114.912 178.132 112.66 177.322 112.22 176.912C112.041 176.744 110.993 174.766 110.941 174.529C110.808 173.916 111.809 172.182 111.52 171.742C110.831 171.309 110.188 170.476 109.482 170.123C108.631 169.695 107.056 169.586 106.361 169.117C106.17 168.984 104.549 166.804 104.538 166.648C104.769 166.191 105.933 165.226 106.384 165.052C107.427 164.642 108.584 165.104 109.655 164.509C109.887 164.382 111.751 162.815 111.792 162.676C112 156.547 110.709 150.493 110.13 144.41L109.841 143.907L105.539 140.906C101.834 141.045 98.1405 141.033 94.4238 141.05C91.697 141.062 87.2971 141.074 84.6919 140.316C82.6888 139.726 80.4194 138.246 78.3816 137.575L74.248 132.169C74.1554 132.053 74.1901 131.984 74.248 131.868C74.3812 131.602 75.8806 129.897 76.1585 129.636C77.0906 128.775 78.6537 128.208 79.4989 127.422C80.431 126.56 81.201 125.028 82.2778 124.01C83.9625 122.415 86.6487 121.114 88.0845 119.656C88.3739 119.356 90.0992 117.106 90.1802 116.835C90.4639 115.898 90.267 114.655 90.4755 113.695C90.4349 113.446 87.8471 111.787 87.4187 111.585C85.6066 110.717 82.4978 110.139 80.952 109.156C80.8131 109.069 79.2268 107.387 79.1747 107.271C78.9547 106.78 80.1242 104.53 80.211 103.709C80.4773 101.31 80.0084 98.5515 80.02 96.123L75.0122 91.9193C73.368 92.1564 71.886 93.1509 70.2244 92.3414L69.7092 85.6399C69.6223 85.0443 69.1939 83.1304 68.7713 82.7661C68.6497 82.662 66.0561 81.6502 65.8014 81.6097C65.0835 81.4883 63.0804 81.3437 62.4204 81.4883C62.1078 81.5576 59.7284 82.6852 59.63 82.8355L59.8442 86.3742C59.7863 86.565 58.3216 87.7504 58.1248 87.8255C57.3027 88.1609 55.3864 87.3167 54.4254 87.334C50.9344 87.4034 47.2814 90.069 44.0567 91.1908L41.1331 90.6877C40.861 90.5085 40.2589 88.1493 39.8711 87.6636C39.7553 87.5249 37.6827 86.0735 37.538 86.0446L30.9323 87.4728C25.3978 91.8788 19.4984 95.6893 15.087 101.315C14.3228 102.287 13.7439 103.524 13.0202 104.484C12.6497 104.975 11.2024 106.722 10.8087 107.034C10.4208 107.346 7.68245 107.728 7.30036 107.497C7.10352 107.375 6.25249 105.409 6.00355 104.987C5.43041 104.033 4.12203 102.212 3.33468 101.466C2.68049 100.841 0.995795 100.026 0.561597 99.4766C0.162134 98.9736 -0.052071 96.4699 3.28678e-05 95.7587C0.0926619 94.5155 0.804748 93.44 0.932113 92.2489C1.05948 91.0289 0.932113 89.5255 1.11737 88.3112C1.38368 86.5361 2.83101 84.9749 3.01048 82.4307C3.20731 79.7073 1.62104 78.0421 1.27368 75.7639C0.961059 73.7228 1.38947 67.7556 1.7542 65.6335C2.21734 62.9217 3.76309 61.0367 6.26407 59.9843C8.37717 59.0997 11.8971 58.8799 12.3486 56.064C12.5802 54.6185 12.0244 53.7685 13.1765 52.4501C14.2128 51.259 16.1754 51.3515 17.3969 50.1604C19.0411 48.5645 19.4058 45.2918 21.1368 44.0544C21.4494 43.8347 22.7926 43.2044 23.1283 43.1755C25.612 42.9442 30.3592 45.8411 33.2944 46.1707C36.1601 46.4945 38.7537 44.7367 41.4168 44.3204C42.5168 44.1469 43.6688 44.4476 44.763 44.1758C46.6446 43.7075 51.4902 41.6143 53.3659 40.7123C59.5779 37.7229 58.7442 31.9986 60.2726 26.3494C62.0152 19.9023 66.1082 20.0757 70.3692 16.4445C71.8454 15.184 72.2449 13.9061 73.2233 12.3102C75.2901 13.0851 77.1832 14.5306 79.4179 14.866C82.1909 15.2881 84.1825 14.0276 86.4171 16.2826C87.384 17.254 87.9108 19.0407 87.494 20.3764C87.3724 20.7696 86.2319 21.4056 85.8556 21.7526C85.5603 22.0301 83.5514 24.1406 83.482 24.2967C83.1346 25.0657 83.6499 26.3031 83.5746 27.1358C87.2045 28.1072 90.8402 28.668 93.8912 31.0272L98.3431 35.7801C98.7136 35.9825 100.983 36.3468 101.411 36.3005C101.585 36.2832 104.37 34.9186 104.567 34.7682C104.908 34.0917 106.686 32.6577 106.842 32.0737C106.877 31.9465 106.761 29.6915 106.714 29.4833C106.576 28.8531 105.244 27.4943 105.227 26.916L106.743 21.9896C107.236 21.6658 109.476 22.0648 110.159 22.0821C111.305 22.111 112.712 21.9434 113.806 22.0879C114.762 22.2151 116.626 23.3658 117.384 23.1056C118.038 22.8801 118.837 22.0764 119.578 21.874C119.822 21.5849 119.972 19.0812 120.175 18.422C120.476 17.4275 121.402 16.3 121.842 15.3285L127.544 12.0096C127.921 11.9402 133.577 13.0272 134.272 13.2354C135.962 13.7327 139.881 16.0629 141.149 17.3118C141.763 17.9132 142.4 19.2951 142.927 19.7057C143.343 20.0237 145.37 20.8505 145.868 20.7811L153.18 17.8033L156.312 12.9579L162.778 12.2813L173.674 4.12268L186.729 0.017334L189.959 1.56118C190.063 1.86185 190.034 4.58526 189.947 4.99001C189.745 5.97876 188.454 7.29132 188.182 8.30898C187.927 9.26304 188.025 10.4137 187.776 11.3793C187.782 11.6858 189.426 14.4265 189.716 14.7272C192.929 18.0866 198.689 17.7397 202.313 21.4981C203.008 22.2209 203.564 23.493 204.276 24.2158C204.89 24.8402 209.782 26.7426 210.911 27.1068C213.215 27.8585 215.785 28.1534 218.084 28.9861L227.48 39.1164L229.344 52.2998C229.072 54.6069 227.648 57.6657 227.613 59.9092C227.561 63.2975 228.991 67.5127 229.049 70.9936L227.705 74.5843C227.248 75.0238 224.521 75.1799 223.751 75.7119C223.578 75.8333 221.87 78.1462 221.904 78.3023L226.947 82.477L234.438 83.5641C236.204 85.1253 237.46 88.0395 239.631 89.0051C240.355 89.3231 243.227 90.202 243.944 90.2598C244.581 90.3119 245.015 89.9938 245.56 89.884C245.751 89.8493 245.809 89.7452 245.965 89.9707C245.531 91.8152 245.6 94.423 245.01 96.1577C244.575 97.4297 243.128 99.2858 242.462 100.598C242.277 100.963 241.912 101.5 241.97 101.876C241.993 102.003 243.018 104.143 243.105 104.241C243.585 104.762 245.38 105.293 246.115 105.837C246.608 106.201 247.742 107.271 248.182 107.739C248.477 108.052 249.936 109.809 249.983 110.081L250 110.07Z"/>
</mask>
<path d="M250 110.07C250 110.914 249.456 111.804 249.276 112.614C249.056 113.585 249.103 115.441 248.732 116.199C248.628 116.407 246.752 118.893 246.613 119.003C245.774 119.662 243.8 120.003 242.954 120.738C242.497 121.137 238.641 125.577 238.474 125.936L236.853 133.025L239.203 140.177L235.585 152.569C235.434 154.957 235.724 157.483 235.573 159.854C235.498 160.993 235.035 162.393 235.081 163.497C235.122 164.526 235.834 165.729 235.863 166.787L232.03 172.182C232.03 173.032 232.071 174.714 231.665 175.46C231.318 176.091 229.17 177.01 229.054 177.611L229.251 191.061C230.467 192.685 231.428 194.64 232.644 196.241C234.039 198.08 236.025 199.612 237.472 201.411C237.987 202.052 240.546 205.568 240.726 206.094C240.957 206.771 240.627 211.258 240.459 212.16C240.303 212.975 238.954 216.624 238.555 217.393C237.866 218.717 235.863 220.197 235.064 221.521C234.236 222.891 233.587 225.216 232.852 226.766C231.347 229.928 228.962 234.277 226.05 236.312C225.453 236.728 222.431 237.214 221.823 236.867C221.644 236.763 220.075 235.005 219.849 234.716C218.79 233.346 217.754 232.085 216.677 230.749C215.426 229.194 214.303 227.523 213.012 226.002C209.243 224.759 205.295 224.077 201.659 222.469C201.022 223.221 199.992 223.874 199.361 224.568C197.369 226.742 195.812 230.113 193.884 232.421C192.917 232.831 186.734 236.659 186.341 236.381L183.967 227.245L183.133 216.34C181.842 215.375 180.349 214.704 179.04 213.761C178.722 213.53 176.563 211.819 176.476 211.68C176.262 211.327 176.568 209.772 176.447 209.055C176.389 208.708 175.833 207.303 175.648 206.996C175.509 206.765 172.91 204.273 172.718 204.215C172.197 204.059 168.307 204.678 167.549 204.857C167.305 204.915 167.068 204.973 166.865 205.129L163.369 211.628L160.185 213.062C159.409 213.137 157.84 212.038 156.954 211.865C156.398 211.755 155.889 211.853 155.351 211.72C154.343 211.466 152.491 209.841 151.547 209.645C150.707 209.471 149.359 210.072 148.363 209.812C148.195 209.772 146.47 208.835 146.348 208.731C145.885 208.315 145.439 206.551 144.918 206.424C144.443 206.302 140.507 208.396 139.418 207.968C138.978 207.823 138.22 205.371 137.716 204.903C137.583 204.782 134.764 203.579 134.596 203.567L134.312 203.706C132.842 205.753 131.632 207.973 129.357 209.228C129.108 209.263 127.44 208.326 126.96 208.193C121.952 206.823 117.801 208.829 113.164 208.771C112.411 208.76 111.612 208.257 110.802 208.303C110.246 208.332 108.804 209.101 108.486 208.881C107.27 206.979 109.291 205.244 109.1 203.197C109.065 203.047 107.89 201.428 107.704 201.249C107.259 200.804 106.633 200.653 106.263 200.26C106.101 200.087 104.636 197.849 104.59 197.693C104.3 196.716 105.192 194.998 105.285 193.946L110.315 190.228C110.987 189.037 110.796 187.476 111.288 186.285C111.942 184.7 115.381 182.185 115.491 181.115C115.572 180.306 115.144 179.103 115.016 178.276C114.912 178.132 112.66 177.322 112.22 176.912C112.041 176.744 110.993 174.766 110.941 174.529C110.808 173.916 111.809 172.182 111.52 171.742C110.831 171.309 110.188 170.476 109.482 170.123C108.631 169.695 107.056 169.586 106.361 169.117C106.17 168.984 104.549 166.804 104.538 166.648C104.769 166.191 105.933 165.226 106.384 165.052C107.427 164.642 108.584 165.104 109.655 164.509C109.887 164.382 111.751 162.815 111.792 162.676C112 156.547 110.709 150.493 110.13 144.41L109.841 143.907L105.539 140.906C101.834 141.045 98.1405 141.033 94.4238 141.05C91.697 141.062 87.2971 141.074 84.6919 140.316C82.6888 139.726 80.4194 138.246 78.3816 137.575L74.248 132.169C74.1554 132.053 74.1901 131.984 74.248 131.868C74.3812 131.602 75.8806 129.897 76.1585 129.636C77.0906 128.775 78.6537 128.208 79.4989 127.422C80.431 126.56 81.201 125.028 82.2778 124.01C83.9625 122.415 86.6487 121.114 88.0845 119.656C88.3739 119.356 90.0992 117.106 90.1802 116.835C90.4639 115.898 90.267 114.655 90.4755 113.695C90.4349 113.446 87.8471 111.787 87.4187 111.585C85.6066 110.717 82.4978 110.139 80.952 109.156C80.8131 109.069 79.2268 107.387 79.1747 107.271C78.9547 106.78 80.1242 104.53 80.211 103.709C80.4773 101.31 80.0084 98.5515 80.02 96.123L75.0122 91.9193C73.368 92.1564 71.886 93.1509 70.2244 92.3414L69.7092 85.6399C69.6223 85.0443 69.1939 83.1304 68.7713 82.7661C68.6497 82.662 66.0561 81.6502 65.8014 81.6097C65.0835 81.4883 63.0804 81.3437 62.4204 81.4883C62.1078 81.5576 59.7284 82.6852 59.63 82.8355L59.8442 86.3742C59.7863 86.565 58.3216 87.7504 58.1248 87.8255C57.3027 88.1609 55.3864 87.3167 54.4254 87.334C50.9344 87.4034 47.2814 90.069 44.0567 91.1908L41.1331 90.6877C40.861 90.5085 40.2589 88.1493 39.8711 87.6636C39.7553 87.5249 37.6827 86.0735 37.538 86.0446L30.9323 87.4728C25.3978 91.8788 19.4984 95.6893 15.087 101.315C14.3228 102.287 13.7439 103.524 13.0202 104.484C12.6497 104.975 11.2024 106.722 10.8087 107.034C10.4208 107.346 7.68245 107.728 7.30036 107.497C7.10352 107.375 6.25249 105.409 6.00355 104.987C5.43041 104.033 4.12203 102.212 3.33468 101.466C2.68049 100.841 0.995795 100.026 0.561597 99.4766C0.162134 98.9736 -0.052071 96.4699 3.28678e-05 95.7587C0.0926619 94.5155 0.804748 93.44 0.932113 92.2489C1.05948 91.0289 0.932113 89.5255 1.11737 88.3112C1.38368 86.5361 2.83101 84.9749 3.01048 82.4307C3.20731 79.7073 1.62104 78.0421 1.27368 75.7639C0.961059 73.7228 1.38947 67.7556 1.7542 65.6335C2.21734 62.9217 3.76309 61.0367 6.26407 59.9843C8.37717 59.0997 11.8971 58.8799 12.3486 56.064C12.5802 54.6185 12.0244 53.7685 13.1765 52.4501C14.2128 51.259 16.1754 51.3515 17.3969 50.1604C19.0411 48.5645 19.4058 45.2918 21.1368 44.0544C21.4494 43.8347 22.7926 43.2044 23.1283 43.1755C25.612 42.9442 30.3592 45.8411 33.2944 46.1707C36.1601 46.4945 38.7537 44.7367 41.4168 44.3204C42.5168 44.1469 43.6688 44.4476 44.763 44.1758C46.6446 43.7075 51.4902 41.6143 53.3659 40.7123C59.5779 37.7229 58.7442 31.9986 60.2726 26.3494C62.0152 19.9023 66.1082 20.0757 70.3692 16.4445C71.8454 15.184 72.2449 13.9061 73.2233 12.3102C75.2901 13.0851 77.1832 14.5306 79.4179 14.866C82.1909 15.2881 84.1825 14.0276 86.4171 16.2826C87.384 17.254 87.9108 19.0407 87.494 20.3764C87.3724 20.7696 86.2319 21.4056 85.8556 21.7526C85.5603 22.0301 83.5514 24.1406 83.482 24.2967C83.1346 25.0657 83.6499 26.3031 83.5746 27.1358C87.2045 28.1072 90.8402 28.668 93.8912 31.0272L98.3431 35.7801C98.7136 35.9825 100.983 36.3468 101.411 36.3005C101.585 36.2832 104.37 34.9186 104.567 34.7682C104.908 34.0917 106.686 32.6577 106.842 32.0737C106.877 31.9465 106.761 29.6915 106.714 29.4833C106.576 28.8531 105.244 27.4943 105.227 26.916L106.743 21.9896C107.236 21.6658 109.476 22.0648 110.159 22.0821C111.305 22.111 112.712 21.9434 113.806 22.0879C114.762 22.2151 116.626 23.3658 117.384 23.1056C118.038 22.8801 118.837 22.0764 119.578 21.874C119.822 21.5849 119.972 19.0812 120.175 18.422C120.476 17.4275 121.402 16.3 121.842 15.3285L127.544 12.0096C127.921 11.9402 133.577 13.0272 134.272 13.2354C135.962 13.7327 139.881 16.0629 141.149 17.3118C141.763 17.9132 142.4 19.2951 142.927 19.7057C143.343 20.0237 145.37 20.8505 145.868 20.7811L153.18 17.8033L156.312 12.9579L162.778 12.2813L173.674 4.12268L186.729 0.017334L189.959 1.56118C190.063 1.86185 190.034 4.58526 189.947 4.99001C189.745 5.97876 188.454 7.29132 188.182 8.30898C187.927 9.26304 188.025 10.4137 187.776 11.3793C187.782 11.6858 189.426 14.4265 189.716 14.7272C192.929 18.0866 198.689 17.7397 202.313 21.4981C203.008 22.2209 203.564 23.493 204.276 24.2158C204.89 24.8402 209.782 26.7426 210.911 27.1068C213.215 27.8585 215.785 28.1534 218.084 28.9861L227.48 39.1164L229.344 52.2998C229.072 54.6069 227.648 57.6657 227.613 59.9092C227.561 63.2975 228.991 67.5127 229.049 70.9936L227.705 74.5843C227.248 75.0238 224.521 75.1799 223.751 75.7119C223.578 75.8333 221.87 78.1462 221.904 78.3023L226.947 82.477L234.438 83.5641C236.204 85.1253 237.46 88.0395 239.631 89.0051C240.355 89.3231 243.227 90.202 243.944 90.2598C244.581 90.3119 245.015 89.9938 245.56 89.884C245.751 89.8493 245.809 89.7452 245.965 89.9707C245.531 91.8152 245.6 94.423 245.01 96.1577C244.575 97.4297 243.128 99.2858 242.462 100.598C242.277 100.963 241.912 101.5 241.97 101.876C241.993 102.003 243.018 104.143 243.105 104.241C243.585 104.762 245.38 105.293 246.115 105.837C246.608 106.201 247.742 107.271 248.182 107.739C248.477 108.052 249.936 109.809 249.983 110.081L250 110.07Z" stroke="url(#paint0_linear_73_190)" stroke-width="6" mask="url(#path-1-inside-1_73_190)"/>
</g>
<defs>
<linearGradient id="paint0_linear_73_190" x1="124.996" y1="0.017334" x2="124.996" y2="236.985" gradientUnits="userSpaceOnUse">
<stop stop-color="#00A088"/>
<stop offset="1" stop-color="#D1E800"/>
</linearGradient>
<clipPath id="clip0_73_190">
<rect width="250" height="237" fill="white"/>
</clipPath>
</defs>
</svg>
