<svg width="250" height="150" viewBox="0 0 250 150" fill="none" xmlns="http://www.w3.org/2000/svg">
<g clip-path="url(#clip0_73_194)">
<mask id="path-1-inside-1_73_194" fill="white">
<path d="M0.0401549 137.268C0.387697 134.191 1.80713 132.661 2.98512 130.198C5.33377 125.272 4.78136 116.603 5.42523 111.106L4.99721 106.711L0.673048 98.6888C1.7047 95.6367 3.12414 92.709 3.65094 89.4995C7.99704 88.4858 12.5663 88.2808 16.9234 87.3806C20.6512 86.6121 26.9326 84.9689 30.4483 83.6588C32.5811 82.861 40.7794 78.8866 42.4111 77.6314C43.1427 77.0715 45.8316 73.8547 46.4791 72.9837C52.5081 64.8337 56.181 48.0178 57.9919 37.9393C58.4602 35.3263 57.9517 32.6987 57.8895 30.0601C57.7505 24.1572 58.4382 17.2478 60.2125 11.5938C60.3955 11.0119 61.4308 8.69169 61.782 8.34036C62.2868 7.83168 63.7465 7.8207 64.1599 7.00827C64.6208 6.10068 64.3574 4.27088 64.2148 3.26449L66.5305 2.31665C67.1597 2.32763 67.6499 4.20501 68.1072 4.62952C68.1914 4.71003 70.0205 5.73106 70.1303 5.764C70.9132 6.00919 72.5046 5.39438 73.5289 5.69813C73.9459 5.82255 75.1312 7.33031 75.6434 7.4767C76.0385 7.59014 76.5397 7.4767 77.008 7.59746C78.1384 7.87925 81.0322 9.05399 81.9101 9.01373C82.3016 8.99543 85.1953 7.75849 85.4295 7.50963L88.8756 0.940637C89.0988 0.786934 93.7595 -0.00354134 94.2278 0.00743748C94.5131 0.0147567 94.5534 0.0476931 94.7839 0.194077C94.9558 0.300206 97.374 2.55452 97.4764 2.70823C97.63 2.9278 98.2666 4.56365 98.3105 4.84178C98.4385 5.68349 98.0946 6.91678 98.4971 7.62308C98.6727 7.92683 101.197 9.8591 101.676 10.1921C102.298 10.624 104.746 11.7877 104.958 12.2891L105.975 23.7034L108.451 32.5523C108.722 32.6072 108.923 32.4499 109.154 32.3547C110.123 31.9412 115.41 29.0464 116.039 28.4828C117.696 26.997 119.741 22.7665 121.354 20.8086C122.024 19.9962 123.092 19.3045 123.82 18.5177C127.449 20.0804 131.364 20.7867 135.113 22.009C136.379 23.5351 137.513 25.1672 138.753 26.7153C139.31 27.4069 140.129 27.9742 140.678 28.6841C141.219 29.3794 141.563 30.3126 142.086 30.986C142.298 31.2605 143.817 32.8231 144.021 32.9439C144.592 33.2733 147.347 32.9 148.027 32.6621C148.455 32.5157 151.766 29.0281 152.18 28.4682C154.594 25.2038 155.545 20.6257 157.506 17.4711C158.282 16.2195 159.855 15.0484 160.63 13.7236L160.897 13.6358C164.479 15.1253 167.618 17.0795 170.651 19.4729L172.275 26.1956L176.588 30.7847C180.535 31.7619 184.457 32.2925 188.547 32.007C190.899 31.8424 192.472 30.6237 194.525 30.3749C195.535 30.2504 196.994 31.2166 197.726 31.9009C197.92 32.0802 199.325 33.8625 199.361 33.9906C199.61 34.9384 198.362 38.1332 197.88 39.114C197.045 40.8084 193.219 46.2942 191.796 47.3115C190.779 48.0325 188.587 48.1423 187.889 48.7827C187.289 49.3353 186.341 51.2127 185.745 52.0178C185.006 53.0132 183.875 54.0708 183.29 55.1284C183.027 55.6079 181.794 58.6234 181.779 59.0113C181.765 59.3992 183.235 62.982 183.528 63.5455C184.94 66.2756 186.495 67.2125 186.557 70.8648C186.579 72.12 185.789 74.345 185.909 75.4795C185.935 75.7137 187.665 79.1318 187.892 79.399C188.35 79.9369 194.766 83.4026 195.739 83.7942C202.438 86.484 212.337 85.5764 219.273 83.8856C221.07 83.4465 223.32 82.3267 225.094 82.0998C225.921 81.9936 230.197 82.151 230.973 82.312C232.608 82.6487 239.555 85.8545 241.344 86.7767C242.548 87.3989 246.144 89.558 246.949 90.4473C248.068 91.6879 248.965 93.6275 250.018 94.9743C250.029 95.3914 247.849 98.8717 247.435 99.256C244.776 101.712 242.102 102.015 238.666 101.335C235.582 100.723 233.373 99.7757 230.549 98.6961C229.802 98.4106 226.938 97.3274 226.36 97.3091C226.005 97.2981 224.161 98.063 223.865 98.3118C223.532 98.59 222.529 100.178 222.292 100.636C221.45 102.272 221.048 104.024 221.004 105.862L225.877 112.277C226.393 114.374 225.807 116.884 226.115 118.904C226.294 120.101 227.454 121.653 226.989 123.146L208.544 136.595L190.771 123.278L190.395 123.845C189.359 123.695 188.222 124.156 187.23 124.185C181.516 124.339 175.256 123.633 169.769 122.026C163.663 120.24 157.744 117.66 151.631 115.871L138.947 117.247C137.751 118.414 136.233 119.428 135.048 120.581C134.685 120.932 134.012 121.51 133.778 121.909C133.222 122.864 132.172 128.138 132.351 129.217C133.324 134.999 137.188 140.05 138.746 145.265C138.889 145.737 139.342 148.222 139.277 148.551C139.222 148.814 138.406 149.949 138.102 149.993C136.573 150.231 133.902 147.768 132.622 146.937C131.543 146.238 130.054 145.667 129.052 144.946C128.141 144.291 127.325 142.835 126.568 142.421C124.885 141.51 122.858 141.653 121.095 141.404C117.517 140.895 114.389 137.945 110.899 136.946C107.508 135.976 103.813 136.233 100.615 134.619C97.8788 133.235 96.6642 131.794 93.3644 131.113C89.6988 130.359 86.3587 130.308 82.5686 129.298C77.8494 128.042 73.0972 127.091 68.2902 126.143C62.8758 125.075 57.6115 126.93 52.2556 126.989C46.1791 127.054 37.8272 124.69 32.0872 125.916C26.3473 127.142 19.4806 130.805 13.5175 132.383C9.38721 134.033 6.77516 137.96 2.89 139.929C2.08883 140.335 0.940107 140.752 0.0474715 140.705C0.135272 139.607 -0.0732537 138.348 0.0474715 137.272L0.0401549 137.268Z"/>
</mask>
<path d="M0.0401549 137.268C0.387697 134.191 1.80713 132.661 2.98512 130.198C5.33377 125.272 4.78136 116.603 5.42523 111.106L4.99721 106.711L0.673048 98.6888C1.7047 95.6367 3.12414 92.709 3.65094 89.4995C7.99704 88.4858 12.5663 88.2808 16.9234 87.3806C20.6512 86.6121 26.9326 84.9689 30.4483 83.6588C32.5811 82.861 40.7794 78.8866 42.4111 77.6314C43.1427 77.0715 45.8316 73.8547 46.4791 72.9837C52.5081 64.8337 56.181 48.0178 57.9919 37.9393C58.4602 35.3263 57.9517 32.6987 57.8895 30.0601C57.7505 24.1572 58.4382 17.2478 60.2125 11.5938C60.3955 11.0119 61.4308 8.69169 61.782 8.34036C62.2868 7.83168 63.7465 7.8207 64.1599 7.00827C64.6208 6.10068 64.3574 4.27088 64.2148 3.26449L66.5305 2.31665C67.1597 2.32763 67.6499 4.20501 68.1072 4.62952C68.1914 4.71003 70.0205 5.73106 70.1303 5.764C70.9132 6.00919 72.5046 5.39438 73.5289 5.69813C73.9459 5.82255 75.1312 7.33031 75.6434 7.4767C76.0385 7.59014 76.5397 7.4767 77.008 7.59746C78.1384 7.87925 81.0322 9.05399 81.9101 9.01373C82.3016 8.99543 85.1953 7.75849 85.4295 7.50963L88.8756 0.940637C89.0988 0.786934 93.7595 -0.00354134 94.2278 0.00743748C94.5131 0.0147567 94.5534 0.0476931 94.7839 0.194077C94.9558 0.300206 97.374 2.55452 97.4764 2.70823C97.63 2.9278 98.2666 4.56365 98.3105 4.84178C98.4385 5.68349 98.0946 6.91678 98.4971 7.62308C98.6727 7.92683 101.197 9.8591 101.676 10.1921C102.298 10.624 104.746 11.7877 104.958 12.2891L105.975 23.7034L108.451 32.5523C108.722 32.6072 108.923 32.4499 109.154 32.3547C110.123 31.9412 115.41 29.0464 116.039 28.4828C117.696 26.997 119.741 22.7665 121.354 20.8086C122.024 19.9962 123.092 19.3045 123.82 18.5177C127.449 20.0804 131.364 20.7867 135.113 22.009C136.379 23.5351 137.513 25.1672 138.753 26.7153C139.31 27.4069 140.129 27.9742 140.678 28.6841C141.219 29.3794 141.563 30.3126 142.086 30.986C142.298 31.2605 143.817 32.8231 144.021 32.9439C144.592 33.2733 147.347 32.9 148.027 32.6621C148.455 32.5157 151.766 29.0281 152.18 28.4682C154.594 25.2038 155.545 20.6257 157.506 17.4711C158.282 16.2195 159.855 15.0484 160.63 13.7236L160.897 13.6358C164.479 15.1253 167.618 17.0795 170.651 19.4729L172.275 26.1956L176.588 30.7847C180.535 31.7619 184.457 32.2925 188.547 32.007C190.899 31.8424 192.472 30.6237 194.525 30.3749C195.535 30.2504 196.994 31.2166 197.726 31.9009C197.92 32.0802 199.325 33.8625 199.361 33.9906C199.61 34.9384 198.362 38.1332 197.88 39.114C197.045 40.8084 193.219 46.2942 191.796 47.3115C190.779 48.0325 188.587 48.1423 187.889 48.7827C187.289 49.3353 186.341 51.2127 185.745 52.0178C185.006 53.0132 183.875 54.0708 183.29 55.1284C183.027 55.6079 181.794 58.6234 181.779 59.0113C181.765 59.3992 183.235 62.982 183.528 63.5455C184.94 66.2756 186.495 67.2125 186.557 70.8648C186.579 72.12 185.789 74.345 185.909 75.4795C185.935 75.7137 187.665 79.1318 187.892 79.399C188.35 79.9369 194.766 83.4026 195.739 83.7942C202.438 86.484 212.337 85.5764 219.273 83.8856C221.07 83.4465 223.32 82.3267 225.094 82.0998C225.921 81.9936 230.197 82.151 230.973 82.312C232.608 82.6487 239.555 85.8545 241.344 86.7767C242.548 87.3989 246.144 89.558 246.949 90.4473C248.068 91.6879 248.965 93.6275 250.018 94.9743C250.029 95.3914 247.849 98.8717 247.435 99.256C244.776 101.712 242.102 102.015 238.666 101.335C235.582 100.723 233.373 99.7757 230.549 98.6961C229.802 98.4106 226.938 97.3274 226.36 97.3091C226.005 97.2981 224.161 98.063 223.865 98.3118C223.532 98.59 222.529 100.178 222.292 100.636C221.45 102.272 221.048 104.024 221.004 105.862L225.877 112.277C226.393 114.374 225.807 116.884 226.115 118.904C226.294 120.101 227.454 121.653 226.989 123.146L208.544 136.595L190.771 123.278L190.395 123.845C189.359 123.695 188.222 124.156 187.23 124.185C181.516 124.339 175.256 123.633 169.769 122.026C163.663 120.24 157.744 117.66 151.631 115.871L138.947 117.247C137.751 118.414 136.233 119.428 135.048 120.581C134.685 120.932 134.012 121.51 133.778 121.909C133.222 122.864 132.172 128.138 132.351 129.217C133.324 134.999 137.188 140.05 138.746 145.265C138.889 145.737 139.342 148.222 139.277 148.551C139.222 148.814 138.406 149.949 138.102 149.993C136.573 150.231 133.902 147.768 132.622 146.937C131.543 146.238 130.054 145.667 129.052 144.946C128.141 144.291 127.325 142.835 126.568 142.421C124.885 141.51 122.858 141.653 121.095 141.404C117.517 140.895 114.389 137.945 110.899 136.946C107.508 135.976 103.813 136.233 100.615 134.619C97.8788 133.235 96.6642 131.794 93.3644 131.113C89.6988 130.359 86.3587 130.308 82.5686 129.298C77.8494 128.042 73.0972 127.091 68.2902 126.143C62.8758 125.075 57.6115 126.93 52.2556 126.989C46.1791 127.054 37.8272 124.69 32.0872 125.916C26.3473 127.142 19.4806 130.805 13.5175 132.383C9.38721 134.033 6.77516 137.96 2.89 139.929C2.08883 140.335 0.940107 140.752 0.0474715 140.705C0.135272 139.607 -0.0732537 138.348 0.0474715 137.272L0.0401549 137.268Z" stroke="url(#paint0_linear_73_194)" stroke-width="6" mask="url(#path-1-inside-1_73_194)"/>
</g>
<defs>
<linearGradient id="paint0_linear_73_194" x1="125.014" y1="0.00732422" x2="125.014" y2="150.009" gradientUnits="userSpaceOnUse">
<stop stop-color="#00A088"/>
<stop offset="1" stop-color="#D1E800"/>
</linearGradient>
<clipPath id="clip0_73_194">
<rect width="250" height="150" fill="white"/>
</clipPath>
</defs>
</svg>
