<svg width="250" height="244" viewBox="0 0 250 244" fill="none" xmlns="http://www.w3.org/2000/svg">
<g clip-path="url(#clip0_73_198)">
<path d="M39.7871 3.16504C40.3987 4.02004 41.1747 4.83964 41.8232 5.54102C42.5674 6.34577 43.1634 7.0182 43.541 7.63281L43.6885 7.89258L43.6895 7.89355C45.1354 10.6504 46.1729 15.7627 46.3506 19.0537L46.2676 39.1221L46.2646 39.9209L46.9248 40.3691L51.5498 43.5127L52.0459 43.8496L52.6367 43.752L65.7988 41.5801L72.4375 43.8027C72.7459 45.0016 73.1768 46.1959 73.5684 47.2949C74.009 48.5318 74.4014 49.6578 74.6309 50.7168L74.7188 51.166C75.051 53.0865 75.3297 57.882 75.2881 60.2168L75.2754 60.6494V60.6504C75.2119 62.1299 74.54 63.5441 73.584 65.21C72.742 66.6771 71.6254 68.4123 70.9922 70.29L70.8721 70.668V70.6689C70.4559 72.0694 70.236 73.6525 70.1133 75.002L70.0879 75.2842L70.166 75.5557C70.2621 75.8871 70.4653 76.1648 70.5254 76.249C70.6318 76.3981 70.7601 76.5594 70.8916 76.7168C71.1575 77.035 71.4928 77.4057 71.8281 77.7607C72.1648 78.1172 72.5164 78.4732 72.8184 78.7627C72.9687 78.9068 73.1151 79.0425 73.2461 79.1562C73.3263 79.2259 73.4431 79.3253 73.5723 79.416L73.7041 79.502L73.7109 79.5059C74.1463 79.7642 74.6493 79.9369 75.0791 80.0635C75.5195 80.1931 76.0025 80.307 76.4121 80.4072C76.8462 80.5134 77.2102 80.6075 77.5088 80.709C77.6703 80.7639 77.776 80.8095 77.8408 80.8408L77.9277 80.8867C78.041 80.981 78.3516 81.2989 78.834 81.8379C79.2878 82.3449 79.8285 82.9741 80.3711 83.6201C81.4706 84.9293 82.5103 86.2281 82.8438 86.7061V86.707C83.5201 87.6853 84.1227 88.8678 84.7715 90.1699C85.1266 90.8826 85.4976 91.6341 85.8936 92.3711L83.8105 93.0664L87.5283 94.6035C91.6051 96.2892 95.8258 97.29 100.022 98.0811C104.319 98.891 108.334 99.4431 112.514 100.301L112.739 100.347L112.969 100.323C116.496 99.9606 119.909 99.9888 123.552 99.8477L125.129 99.7754C130.361 99.4902 136.442 99.3384 141.493 96.0723L141.805 95.8701L141.987 95.5469C142.765 94.1603 143.374 92.4651 143.939 91.1445C144.509 89.8142 145.084 88.7194 145.853 87.9102L146.009 87.752L146.012 87.749C146.217 87.549 146.634 87.1757 147.072 86.8145C147.43 86.5201 147.718 86.3034 147.89 86.1875L148.021 86.1064L148.023 86.1045C148.869 85.6615 150.035 85.3012 151.391 84.8799C152.643 84.4904 154.096 84.0367 155.198 83.4072L155.199 83.4082C155.21 83.4027 155.419 83.2937 155.583 83.1748C155.8 83.0171 156.058 82.7706 156.234 82.3926L156.292 82.2676L156.327 82.1348L157.422 77.9209L157.563 77.374L157.311 76.8701C157.037 76.3253 156.829 75.6906 156.573 74.915C156.334 74.1901 156.048 73.3263 155.632 72.5498H155.633C155.441 72.1901 155.039 71.6083 154.627 71.0264C154.193 70.4128 153.662 69.6806 153.164 68.9863C152.658 68.2817 152.184 67.613 151.837 67.0918C151.761 66.9776 151.694 66.8745 151.636 66.7832C151.904 66.1458 152.089 65.7166 152.346 65.3398C152.613 64.9478 152.959 64.6222 153.673 64.3457L153.672 64.3447C154.048 64.2007 154.502 64.1096 155.114 63.9971C155.506 63.925 155.976 63.8396 156.454 63.7168L214.848 91.0322C218.034 92.7911 221.204 95.0133 224.468 97.2695C227.711 99.5121 231.045 101.785 234.434 103.521V103.522C234.796 103.709 235.23 103.876 235.613 104.018C236.029 104.172 236.411 104.306 236.792 104.459C237.17 104.611 237.47 104.75 237.688 104.882C237.815 104.959 237.875 105.01 237.896 105.028C238.098 105.389 238.573 106.37 239.048 107.425C239.426 108.265 239.74 109.011 239.904 109.444L240.015 109.766L240.016 109.77C240.143 110.242 240.344 111.481 240.518 112.842C240.691 114.199 240.81 115.463 240.81 115.97C240.81 117.087 240.58 118.33 240.321 119.773C240.106 120.975 239.871 122.318 239.853 123.632L239.858 124.192V124.194C239.919 125.769 240.224 128.211 240.654 130.578C241.053 132.771 241.585 135.056 242.187 136.572L242.308 136.865L242.309 136.867C242.641 137.632 243.099 138.343 243.47 138.926C243.867 139.551 244.173 140.041 244.37 140.516V140.517C244.741 141.412 245.517 143.766 246.238 146.191C246.88 148.348 247.418 150.358 247.602 151.362L247.658 151.729C247.783 152.868 247.695 153.767 247.533 154.688C247.382 155.551 247.101 156.711 246.962 157.927C246.715 160.066 247.327 162.515 247.795 164.631C248.264 166.754 248.633 168.687 248.439 170.437L248.394 170.784L248.393 170.785C248.351 171.052 248.197 171.484 247.885 172.104C247.584 172.701 247.195 173.361 246.769 174.071C246.353 174.763 245.897 175.51 245.512 176.214C245.248 176.696 244.99 177.205 244.79 177.707L226.736 186.849L199.034 193.79L198.625 193.893L198.329 194.193C195.486 197.086 193.13 200.323 190.872 203.497C188.736 206.499 186.696 209.432 184.355 212.122L183.883 212.656C182.138 214.603 180.397 215.846 178.512 216.961C177.554 217.527 176.576 218.05 175.513 218.632C174.723 219.064 173.898 219.522 173.04 220.035L172.172 220.566C170.082 221.879 167.234 223.851 165.094 225.541L164.224 226.245L164.223 226.246C162.875 227.372 161.643 228.69 160.491 229.953C159.463 231.081 158.505 232.155 157.524 233.112L157.103 233.515L157.102 233.516C156.48 234.096 154.897 235.431 153.271 236.725C152.465 237.367 151.663 237.987 150.981 238.487C150.447 238.879 150.034 239.161 149.765 239.326L149.543 239.453H149.542C149.351 239.55 148.84 239.744 148.047 240.002C147.292 240.248 146.375 240.523 145.443 240.788C143.776 241.262 142.172 241.671 141.374 241.828L141.084 241.879L141.081 241.88C138.939 242.201 135.224 242.447 132.998 242.477H132.589C130.728 242.458 128.949 242.161 126.918 241.965C126.848 241.87 126.766 241.757 126.674 241.626C126.335 241.144 125.913 240.503 125.466 239.818C125.025 239.144 124.56 238.428 124.156 237.829C123.873 237.408 123.575 236.978 123.318 236.653L123.077 236.367L123.074 236.364L122.836 236.128C122.596 235.908 122.355 235.735 122.148 235.596C121.972 235.477 121.861 235.405 121.763 235.343L121.457 235.139L121.455 235.138L120.877 234.736C114.872 230.65 108.092 228.427 101.887 225.587L101.535 225.426L101.151 225.455C100.11 225.532 98.9087 225.457 97.5752 225.375C96.4589 225.307 95.237 225.234 94.1045 225.297L93.625 225.332C92.3844 225.449 90.7826 225.998 89.3867 226.494C88.0676 226.963 86.8655 227.409 85.8984 227.668L85.499 227.767L85.4961 227.768C81.2126 228.738 76.1159 229.487 71.0762 229.585C66.3357 229.677 61.7335 229.192 57.9238 227.839L57.1729 227.557C55.5818 226.925 53.2498 225.637 51.2363 224.487L49.3682 223.412C49.1914 223.31 48.9916 223.203 48.8213 223.109C48.6389 223.01 48.4719 222.916 48.3164 222.822C48.1603 222.728 48.0362 222.646 47.9424 222.573C47.8782 222.523 47.8444 222.487 47.8281 222.471C47.8146 222.448 47.792 222.409 47.7588 222.35C47.685 222.218 47.5872 222.038 47.4727 221.821C47.2444 221.39 46.96 220.837 46.6807 220.282C46.4012 219.728 46.1309 219.179 45.9287 218.756C45.827 218.543 45.7467 218.37 45.6924 218.248C45.6892 218.241 45.6865 218.234 45.6836 218.228C45.6797 218.102 45.6895 217.883 45.7363 217.545C45.7962 217.113 45.8971 216.613 46.0146 216.057C46.1998 215.18 46.466 214.022 46.5117 213.086L46.5176 212.7C46.5038 212.17 46.2938 210.973 46.0977 209.966C45.8965 208.933 45.6441 207.77 45.4814 207.286H45.4805C45.1715 206.365 44.4847 205.435 43.9531 204.734C43.4157 204.026 42.9772 203.475 42.6875 203.004L42.5723 202.807C42.308 202.322 41.8556 201.333 41.4219 200.286C41.0364 199.356 40.7128 198.492 40.5586 197.972L40.5029 197.771L40.501 197.763L40.4639 197.618C40.4522 197.575 40.444 197.545 40.4365 197.517C40.4331 197.504 40.4299 197.492 40.4277 197.483C40.4356 197.46 40.4481 197.424 40.4658 197.375C40.5129 197.243 40.5805 197.067 40.6641 196.854C40.8307 196.431 41.0503 195.896 41.2783 195.356C41.5061 194.817 41.7383 194.282 41.9297 193.856C42.0256 193.643 42.1085 193.464 42.1738 193.328C42.2241 193.224 42.2516 193.17 42.2607 193.152C42.9781 192.003 43.9692 190.865 45.0713 189.533C46.0176 188.39 47.0291 187.119 47.7861 185.731C47.7965 185.728 47.8074 185.724 47.8184 185.721C48.1138 185.626 48.5045 185.517 48.9385 185.401C49.3526 185.291 49.8276 185.168 50.2129 185.063C50.487 184.989 50.7858 184.905 51.0352 184.82L51.2656 184.735C51.8349 184.505 52.3802 184.099 52.8604 183.677C53.3608 183.237 53.8845 182.693 54.4092 182.096C55.4595 180.899 56.5847 179.402 57.6367 177.869C58.6909 176.333 59.69 174.734 60.4863 173.32C61.2624 171.943 61.9058 170.636 62.1797 169.721L62.1807 169.722C62.3119 169.284 62.5055 168.422 62.6455 167.607C62.7166 167.194 62.7797 166.76 62.8135 166.374C62.8372 166.103 62.8666 165.675 62.7969 165.279L62.7607 165.112L62.7578 165.104L62.7119 164.958C62.6619 164.824 62.6066 164.726 62.5918 164.699C62.5528 164.629 62.5101 164.561 62.4736 164.504C62.3994 164.388 62.3087 164.257 62.2139 164.124C62.0217 163.856 61.7761 163.529 61.5303 163.211C61.2835 162.891 61.0276 162.569 60.8135 162.308C60.6383 162.094 60.4017 161.809 60.2344 161.655H60.2354C60.0653 161.499 59.7229 161.26 59.4512 161.073C59.1267 160.85 58.7243 160.582 58.3271 160.322C57.9308 160.063 57.5293 159.806 57.208 159.609C57.0492 159.512 56.8975 159.422 56.7705 159.352C56.7085 159.317 56.6361 159.278 56.5635 159.243C56.553 159.238 56.3423 159.131 56.085 159.089L55.79 159.041L55.499 159.109C54.5217 159.341 53.0096 159.608 51.8486 159.979C50.9353 160.27 50.0411 160.666 49.5527 160.844C49.0574 161.024 48.5422 161.171 47.7861 161.247L47.4463 161.275C45.4737 161.407 42.7715 161.403 40.0889 161.201C37.3985 160.999 34.8447 160.607 33.0869 160.011C33.0696 160 33.0134 159.966 32.9131 159.889C32.7569 159.768 32.5587 159.593 32.3213 159.361C31.8465 158.898 31.2949 158.291 30.7148 157.632C30.1665 157.008 29.5314 156.266 29.0244 155.694C28.666 155.29 28.2968 154.887 27.9619 154.559L26.1895 146.69L26.0557 146.098L25.5479 145.766L25.2334 145.554C24.4985 145.046 23.7602 144.451 22.9668 143.812C22.1954 143.19 21.3684 142.524 20.5127 141.942L20.1445 141.698L20.1406 141.696L19.8389 141.518C19.4861 141.32 18.9948 141.071 18.4844 140.817C17.7713 140.463 16.9081 140.043 16.0879 139.642C15.2865 139.249 14.5255 138.872 13.9453 138.569L16.0098 132.727L16.083 132.52L16.0938 132.301L16.4629 124.788L16.4844 124.345L16.2617 123.961C14.053 120.157 11.1524 116.973 8.45117 113.903C5.79179 110.882 3.30523 107.95 1.51074 104.472L1.5 88.4053L4.11914 86.4863L4.63672 86.1064L4.71973 85.4697L5.24805 81.4131L9.89941 74.9033L10.2031 74.4766L10.1768 73.9541C10.1277 73.0013 9.76331 72.0091 9.52441 71.3193C9.23995 70.498 9.08893 69.9948 9.08887 69.626C9.08887 69.2085 9.18147 68.6816 9.32031 67.9873C9.44565 67.3605 9.61737 66.5631 9.66406 65.834L9.66309 65.833C9.77239 64.1852 9.72396 62.4972 9.67676 60.8906C9.63038 59.3123 9.58617 57.81 9.66699 56.3613L14.3691 40.166L14.498 39.7207L14.3535 39.2803L11.4424 30.4072L13.3223 22.2383C13.3452 22.2064 13.3719 22.1683 13.4043 22.125C13.5466 21.9345 13.7496 21.6765 14 21.3662C14.499 20.748 15.1577 19.9597 15.834 19.167C16.5097 18.375 17.1967 17.5857 17.751 16.9648C18.0286 16.6539 18.2687 16.3901 18.4551 16.1914L18.7441 15.8936L18.748 15.8896C18.8543 15.8008 19.0607 15.6757 19.415 15.5166C19.7608 15.3614 20.1564 15.2136 20.6133 15.043C21.3636 14.7628 22.4479 14.3733 23.2295 13.7861L23.3818 13.666L23.3828 13.665C23.5444 13.5304 23.7044 13.3461 23.7998 13.2344C23.9226 13.0905 24.0651 12.9145 24.2158 12.7236C24.5187 12.3401 24.8801 11.8635 25.2285 11.3887C25.5763 10.9148 25.9207 10.4298 26.1885 10.0312C26.3213 9.83358 26.4453 9.64328 26.543 9.47949C26.5912 9.39861 26.6414 9.30903 26.6865 9.21973C26.7092 9.1749 26.7633 9.0684 26.8096 8.93066L26.8516 8.7832L26.8535 8.77441C27.0249 8.03639 27.071 7.20942 27.1094 6.53906C27.1409 5.98949 27.1682 5.521 27.2236 5.11328L27.29 4.72461L27.292 4.71094C27.2879 4.73163 27.2937 4.70205 27.3271 4.58594C27.3555 4.48744 27.3944 4.359 27.4414 4.20801C27.5353 3.90629 27.6562 3.53291 27.7793 3.16699C27.8584 2.93163 27.9373 2.70403 28.0088 2.50293L33.584 1.53906L39.7871 3.16504Z" stroke="url(#paint0_linear_73_198)" stroke-width="3"/>
</g>
<defs>
<linearGradient id="paint0_linear_73_198" x1="124.996" y1="0.00585937" x2="124.996" y2="243.978" gradientUnits="userSpaceOnUse">
<stop stop-color="#00A088"/>
<stop offset="1" stop-color="#D1E800"/>
</linearGradient>
<clipPath id="clip0_73_198">
<rect width="250" height="244" fill="white"/>
</clipPath>
</defs>
</svg>
